<mxfile host="app.diagrams.net" modified="2023-01-22T03:54:18.210Z" agent="5.0 (Windows NT 10.0; Win64; x64) AppleWebKit/537.36 (KHTML, like Gecko) Chrome/109.0.0.0 Safari/537.36" version="20.7.4" etag="vpOKssb8GxePSHNvFsoM" type="github">
  <diagram id="ee7pn-f0wPWARoZbLR82" name="Page-1">
    <mxGraphModel dx="1782" dy="1353" grid="1" gridSize="10" guides="1" tooltips="1" connect="1" arrows="1" fold="1" page="1" pageScale="1" pageWidth="850" pageHeight="1100" math="0" shadow="0">
      <root>
        <mxCell id="0" />
        <mxCell id="1" parent="0" />
        <mxCell id="u-VpH2WF8Jtv2nqAHQWA-4" style="edgeStyle=orthogonalEdgeStyle;rounded=0;orthogonalLoop=1;jettySize=auto;html=1;entryX=0.5;entryY=0;entryDx=0;entryDy=0;" edge="1" parent="1" source="u-VpH2WF8Jtv2nqAHQWA-2" target="u-VpH2WF8Jtv2nqAHQWA-6">
          <mxGeometry relative="1" as="geometry">
            <mxPoint x="518.13" y="460" as="targetPoint" />
          </mxGeometry>
        </mxCell>
        <mxCell id="u-VpH2WF8Jtv2nqAHQWA-2" value="User inputs 2 files they want to compare" style="rounded=0;whiteSpace=wrap;html=1;fillColor=#d5e8d4;strokeColor=#82b366;" vertex="1" parent="1">
          <mxGeometry x="443.14" y="370" width="150" height="40" as="geometry" />
        </mxCell>
        <mxCell id="u-VpH2WF8Jtv2nqAHQWA-8" style="edgeStyle=orthogonalEdgeStyle;rounded=0;orthogonalLoop=1;jettySize=auto;html=1;entryX=0.5;entryY=0;entryDx=0;entryDy=0;" edge="1" parent="1" source="u-VpH2WF8Jtv2nqAHQWA-6" target="u-VpH2WF8Jtv2nqAHQWA-7">
          <mxGeometry relative="1" as="geometry" />
        </mxCell>
        <mxCell id="u-VpH2WF8Jtv2nqAHQWA-6" value="Feed the two files into diff and get the output" style="rounded=0;whiteSpace=wrap;html=1;" vertex="1" parent="1">
          <mxGeometry x="443.13" y="450" width="150" height="40" as="geometry" />
        </mxCell>
        <mxCell id="u-VpH2WF8Jtv2nqAHQWA-10" value="No" style="edgeStyle=orthogonalEdgeStyle;rounded=0;orthogonalLoop=1;jettySize=auto;html=1;entryX=0;entryY=0.5;entryDx=0;entryDy=0;" edge="1" parent="1" source="u-VpH2WF8Jtv2nqAHQWA-7" target="u-VpH2WF8Jtv2nqAHQWA-11">
          <mxGeometry relative="1" as="geometry">
            <mxPoint x="683.13" y="590" as="targetPoint" />
          </mxGeometry>
        </mxCell>
        <mxCell id="u-VpH2WF8Jtv2nqAHQWA-13" value="Yes" style="edgeStyle=orthogonalEdgeStyle;rounded=0;orthogonalLoop=1;jettySize=auto;html=1;entryX=0.5;entryY=0;entryDx=0;entryDy=0;" edge="1" parent="1" source="u-VpH2WF8Jtv2nqAHQWA-7" target="u-VpH2WF8Jtv2nqAHQWA-14">
          <mxGeometry relative="1" as="geometry">
            <mxPoint x="518.13" y="670" as="targetPoint" />
          </mxGeometry>
        </mxCell>
        <mxCell id="u-VpH2WF8Jtv2nqAHQWA-7" value="Does the diff output exceed LLM attention? (&amp;gt;1500 words)" style="rhombus;whiteSpace=wrap;html=1;fillColor=#fff2cc;strokeColor=#d6b656;" vertex="1" parent="1">
          <mxGeometry x="420" y="515" width="196.25" height="90" as="geometry" />
        </mxCell>
        <mxCell id="u-VpH2WF8Jtv2nqAHQWA-11" value="Feed diff straight into the LLM. Prompt for explanation" style="rounded=0;whiteSpace=wrap;html=1;" vertex="1" parent="1">
          <mxGeometry x="673.13" y="543" width="160" height="35" as="geometry" />
        </mxCell>
        <mxCell id="u-VpH2WF8Jtv2nqAHQWA-14" value="Gotta split it up into smaller chunks." style="rounded=0;whiteSpace=wrap;html=1;" vertex="1" parent="1">
          <mxGeometry x="449.69" y="670" width="133.44" height="30" as="geometry" />
        </mxCell>
        <mxCell id="u-VpH2WF8Jtv2nqAHQWA-18" value="&lt;span style=&quot;box-sizing: border-box; color: rgb(53, 55, 64); font-family: ColfaxAI, helvetica, sans-serif; font-size: 12px; text-align: left; background-color: rgb(255, 255, 255);&quot; data-offset-key=&quot;edk77-0-0&quot;&gt;&lt;span style=&quot;box-sizing: border-box; font-size: 12px;&quot; data-offset-key=&quot;edk77-0-0&quot;&gt;The&lt;/span&gt;&lt;/span&gt;&lt;span style=&quot;box-sizing: border-box; color: rgb(53, 55, 64); font-family: ColfaxAI, helvetica, sans-serif; font-size: 12px; text-align: left; background-color: rgb(255, 255, 255);&quot; data-offset-key=&quot;edk77-1-0&quot;&gt;&lt;span style=&quot;box-sizing: border-box; font-size: 12px;&quot; data-offset-key=&quot;edk77-1-0&quot;&gt; diff&lt;/span&gt;&lt;/span&gt;&lt;span style=&quot;box-sizing: border-box; color: rgb(53, 55, 64); font-family: ColfaxAI, helvetica, sans-serif; font-size: 12px; text-align: left; background-color: rgb(255, 255, 255);&quot; data-offset-key=&quot;edk77-2-0&quot;&gt;&lt;span style=&quot;box-sizing: border-box; font-size: 12px;&quot; data-offset-key=&quot;edk77-2-0&quot;&gt; output&lt;/span&gt;&lt;/span&gt;&lt;span style=&quot;box-sizing: border-box; color: rgb(53, 55, 64); font-family: ColfaxAI, helvetica, sans-serif; font-size: 12px; text-align: left; background-color: rgb(255, 255, 255);&quot; data-offset-key=&quot;edk77-3-0&quot;&gt;&lt;span style=&quot;box-sizing: border-box; font-size: 12px;&quot; data-offset-key=&quot;edk77-3-0&quot;&gt; shows&lt;/span&gt;&lt;/span&gt;&lt;span style=&quot;box-sizing: border-box; color: rgb(53, 55, 64); font-family: ColfaxAI, helvetica, sans-serif; font-size: 12px; text-align: left; background-color: rgb(255, 255, 255);&quot; data-offset-key=&quot;edk77-4-0&quot;&gt;&lt;span style=&quot;box-sizing: border-box; font-size: 12px;&quot; data-offset-key=&quot;edk77-4-0&quot;&gt; the&lt;/span&gt;&lt;/span&gt;&lt;span style=&quot;box-sizing: border-box; color: rgb(53, 55, 64); font-family: ColfaxAI, helvetica, sans-serif; font-size: 12px; text-align: left; background-color: rgb(255, 255, 255);&quot; data-offset-key=&quot;edk77-5-0&quot;&gt;&lt;span style=&quot;box-sizing: border-box; font-size: 12px;&quot; data-offset-key=&quot;edk77-5-0&quot;&gt; difference&lt;/span&gt;&lt;/span&gt;&lt;span style=&quot;box-sizing: border-box; color: rgb(53, 55, 64); font-family: ColfaxAI, helvetica, sans-serif; font-size: 12px; text-align: left; background-color: rgb(255, 255, 255);&quot; data-offset-key=&quot;edk77-6-0&quot;&gt;&lt;span style=&quot;box-sizing: border-box; font-size: 12px;&quot; data-offset-key=&quot;edk77-6-0&quot;&gt; between&lt;/span&gt;&lt;/span&gt;&lt;span style=&quot;box-sizing: border-box; color: rgb(53, 55, 64); font-family: ColfaxAI, helvetica, sans-serif; font-size: 12px; text-align: left; background-color: rgb(255, 255, 255);&quot; data-offset-key=&quot;edk77-7-0&quot;&gt;&lt;span style=&quot;box-sizing: border-box; font-size: 12px;&quot; data-offset-key=&quot;edk77-7-0&quot;&gt; two&lt;/span&gt;&lt;/span&gt;&lt;span style=&quot;box-sizing: border-box; color: rgb(53, 55, 64); font-family: ColfaxAI, helvetica, sans-serif; font-size: 12px; text-align: left; background-color: rgb(255, 255, 255);&quot; data-offset-key=&quot;edk77-8-0&quot;&gt;&lt;span style=&quot;box-sizing: border-box; font-size: 12px;&quot; data-offset-key=&quot;edk77-8-0&quot;&gt; files&lt;/span&gt;&lt;/span&gt;&lt;span style=&quot;box-sizing: border-box; color: rgb(53, 55, 64); font-family: ColfaxAI, helvetica, sans-serif; font-size: 12px; text-align: left; background-color: rgb(255, 255, 255);&quot; data-offset-key=&quot;edk77-9-0&quot;&gt;&lt;span style=&quot;box-sizing: border-box; font-size: 12px;&quot; data-offset-key=&quot;edk77-9-0&quot;&gt;.&lt;/span&gt;&lt;/span&gt;&lt;span style=&quot;box-sizing: border-box; color: rgb(53, 55, 64); font-family: ColfaxAI, helvetica, sans-serif; font-size: 12px; text-align: left; background-color: rgb(255, 255, 255);&quot; data-offset-key=&quot;edk77-10-0&quot;&gt;&lt;span style=&quot;box-sizing: border-box; font-size: 12px;&quot; data-offset-key=&quot;edk77-10-0&quot;&gt; It&lt;/span&gt;&lt;/span&gt;&lt;span style=&quot;box-sizing: border-box; color: rgb(53, 55, 64); font-family: ColfaxAI, helvetica, sans-serif; font-size: 12px; text-align: left; background-color: rgb(255, 255, 255);&quot; data-offset-key=&quot;edk77-11-0&quot;&gt;&lt;span style=&quot;box-sizing: border-box; font-size: 12px;&quot; data-offset-key=&quot;edk77-11-0&quot;&gt; uses&lt;/span&gt;&lt;/span&gt;&lt;span style=&quot;box-sizing: border-box; color: rgb(53, 55, 64); font-family: ColfaxAI, helvetica, sans-serif; font-size: 12px; text-align: left; background-color: rgb(255, 255, 255);&quot; data-offset-key=&quot;edk77-12-0&quot;&gt;&lt;span style=&quot;box-sizing: border-box; font-size: 12px;&quot; data-offset-key=&quot;edk77-12-0&quot;&gt; &quot;&amp;lt;&lt;/span&gt;&lt;/span&gt;&lt;span style=&quot;box-sizing: border-box; color: rgb(53, 55, 64); font-family: ColfaxAI, helvetica, sans-serif; font-size: 12px; text-align: left; background-color: rgb(255, 255, 255);&quot; data-offset-key=&quot;edk77-13-0&quot;&gt;&lt;span style=&quot;box-sizing: border-box; font-size: 12px;&quot; data-offset-key=&quot;edk77-13-0&quot;&gt;&quot;&lt;/span&gt;&lt;/span&gt;&lt;span style=&quot;box-sizing: border-box; color: rgb(53, 55, 64); font-family: ColfaxAI, helvetica, sans-serif; font-size: 12px; text-align: left; background-color: rgb(255, 255, 255);&quot; data-offset-key=&quot;edk77-14-0&quot;&gt;&lt;span style=&quot;box-sizing: border-box; font-size: 12px;&quot; data-offset-key=&quot;edk77-14-0&quot;&gt; to&lt;/span&gt;&lt;/span&gt;&lt;span style=&quot;box-sizing: border-box; color: rgb(53, 55, 64); font-family: ColfaxAI, helvetica, sans-serif; font-size: 12px; text-align: left; background-color: rgb(255, 255, 255);&quot; data-offset-key=&quot;edk77-15-0&quot;&gt;&lt;span style=&quot;box-sizing: border-box; font-size: 12px;&quot; data-offset-key=&quot;edk77-15-0&quot;&gt; indicate&lt;/span&gt;&lt;/span&gt;&lt;span style=&quot;box-sizing: border-box; color: rgb(53, 55, 64); font-family: ColfaxAI, helvetica, sans-serif; font-size: 12px; text-align: left; background-color: rgb(255, 255, 255);&quot; data-offset-key=&quot;edk77-16-0&quot;&gt;&lt;span style=&quot;box-sizing: border-box; font-size: 12px;&quot; data-offset-key=&quot;edk77-16-0&quot;&gt; lines&lt;/span&gt;&lt;/span&gt;&lt;span style=&quot;box-sizing: border-box; color: rgb(53, 55, 64); font-family: ColfaxAI, helvetica, sans-serif; font-size: 12px; text-align: left; background-color: rgb(255, 255, 255);&quot; data-offset-key=&quot;edk77-17-0&quot;&gt;&lt;span style=&quot;box-sizing: border-box; font-size: 12px;&quot; data-offset-key=&quot;edk77-17-0&quot;&gt; from&lt;/span&gt;&lt;/span&gt;&lt;span style=&quot;box-sizing: border-box; color: rgb(53, 55, 64); font-family: ColfaxAI, helvetica, sans-serif; font-size: 12px; text-align: left; background-color: rgb(255, 255, 255);&quot; data-offset-key=&quot;edk77-18-0&quot;&gt;&lt;span style=&quot;box-sizing: border-box; font-size: 12px;&quot; data-offset-key=&quot;edk77-18-0&quot;&gt; the&lt;/span&gt;&lt;/span&gt;&lt;span style=&quot;box-sizing: border-box; color: rgb(53, 55, 64); font-family: ColfaxAI, helvetica, sans-serif; font-size: 12px; text-align: left; background-color: rgb(255, 255, 255);&quot; data-offset-key=&quot;edk77-19-0&quot;&gt;&lt;span style=&quot;box-sizing: border-box; font-size: 12px;&quot; data-offset-key=&quot;edk77-19-0&quot;&gt; first&lt;/span&gt;&lt;/span&gt;&lt;span style=&quot;box-sizing: border-box; color: rgb(53, 55, 64); font-family: ColfaxAI, helvetica, sans-serif; font-size: 12px; text-align: left; background-color: rgb(255, 255, 255);&quot; data-offset-key=&quot;edk77-20-0&quot;&gt;&lt;span style=&quot;box-sizing: border-box; font-size: 12px;&quot; data-offset-key=&quot;edk77-20-0&quot;&gt; file&lt;/span&gt;&lt;/span&gt;&lt;span style=&quot;box-sizing: border-box; color: rgb(53, 55, 64); font-family: ColfaxAI, helvetica, sans-serif; font-size: 12px; text-align: left; background-color: rgb(255, 255, 255);&quot; data-offset-key=&quot;edk77-21-0&quot;&gt;&lt;span style=&quot;box-sizing: border-box; font-size: 12px;&quot; data-offset-key=&quot;edk77-21-0&quot;&gt; and&lt;/span&gt;&lt;/span&gt;&lt;span style=&quot;box-sizing: border-box; color: rgb(53, 55, 64); font-family: ColfaxAI, helvetica, sans-serif; font-size: 12px; text-align: left; background-color: rgb(255, 255, 255);&quot; data-offset-key=&quot;edk77-22-0&quot;&gt;&lt;span style=&quot;box-sizing: border-box; font-size: 12px;&quot; data-offset-key=&quot;edk77-22-0&quot;&gt; &quot;&lt;/span&gt;&lt;/span&gt;&lt;span style=&quot;box-sizing: border-box; color: rgb(53, 55, 64); font-family: ColfaxAI, helvetica, sans-serif; font-size: 12px; text-align: left; background-color: rgb(255, 255, 255);&quot; data-offset-key=&quot;edk77-23-0&quot;&gt;&lt;span style=&quot;box-sizing: border-box; font-size: 12px;&quot; data-offset-key=&quot;edk77-23-0&quot;&gt;&amp;gt;&quot;&lt;/span&gt;&lt;/span&gt;&lt;span style=&quot;box-sizing: border-box; color: rgb(53, 55, 64); font-family: ColfaxAI, helvetica, sans-serif; font-size: 12px; text-align: left; background-color: rgb(255, 255, 255);&quot; data-offset-key=&quot;edk77-24-0&quot;&gt;&lt;span style=&quot;box-sizing: border-box; font-size: 12px;&quot; data-offset-key=&quot;edk77-24-0&quot;&gt; to&lt;/span&gt;&lt;/span&gt;&lt;span style=&quot;box-sizing: border-box; color: rgb(53, 55, 64); font-family: ColfaxAI, helvetica, sans-serif; font-size: 12px; text-align: left; background-color: rgb(255, 255, 255);&quot; data-offset-key=&quot;edk77-25-0&quot;&gt;&lt;span style=&quot;box-sizing: border-box; font-size: 12px;&quot; data-offset-key=&quot;edk77-25-0&quot;&gt; indicate&lt;/span&gt;&lt;/span&gt;&lt;span style=&quot;box-sizing: border-box; color: rgb(53, 55, 64); font-family: ColfaxAI, helvetica, sans-serif; font-size: 12px; text-align: left; background-color: rgb(255, 255, 255);&quot; data-offset-key=&quot;edk77-26-0&quot;&gt;&lt;span style=&quot;box-sizing: border-box; font-size: 12px;&quot; data-offset-key=&quot;edk77-26-0&quot;&gt; lines&lt;/span&gt;&lt;/span&gt;&lt;span style=&quot;box-sizing: border-box; color: rgb(53, 55, 64); font-family: ColfaxAI, helvetica, sans-serif; font-size: 12px; text-align: left; background-color: rgb(255, 255, 255);&quot; data-offset-key=&quot;edk77-27-0&quot;&gt;&lt;span style=&quot;box-sizing: border-box; font-size: 12px;&quot; data-offset-key=&quot;edk77-27-0&quot;&gt; from&lt;/span&gt;&lt;/span&gt;&lt;span style=&quot;box-sizing: border-box; color: rgb(53, 55, 64); font-family: ColfaxAI, helvetica, sans-serif; font-size: 12px; text-align: left; background-color: rgb(255, 255, 255);&quot; data-offset-key=&quot;edk77-28-0&quot;&gt;&lt;span style=&quot;box-sizing: border-box; font-size: 12px;&quot; data-offset-key=&quot;edk77-28-0&quot;&gt; the&lt;/span&gt;&lt;/span&gt;&lt;span style=&quot;box-sizing: border-box; color: rgb(53, 55, 64); font-family: ColfaxAI, helvetica, sans-serif; font-size: 12px; text-align: left; background-color: rgb(255, 255, 255);&quot; data-offset-key=&quot;edk77-29-0&quot;&gt;&lt;span style=&quot;box-sizing: border-box; font-size: 12px;&quot; data-offset-key=&quot;edk77-29-0&quot;&gt; second&lt;/span&gt;&lt;/span&gt;&lt;span style=&quot;box-sizing: border-box; color: rgb(53, 55, 64); font-family: ColfaxAI, helvetica, sans-serif; font-size: 12px; text-align: left; background-color: rgb(255, 255, 255);&quot; data-offset-key=&quot;edk77-30-0&quot;&gt;&lt;span style=&quot;box-sizing: border-box; font-size: 12px;&quot; data-offset-key=&quot;edk77-30-0&quot;&gt; file&lt;/span&gt;&lt;/span&gt;&lt;span style=&quot;box-sizing: border-box; color: rgb(53, 55, 64); font-family: ColfaxAI, helvetica, sans-serif; font-size: 12px; text-align: left; background-color: rgb(255, 255, 255);&quot; data-offset-key=&quot;edk77-31-0&quot;&gt;&lt;span style=&quot;box-sizing: border-box; font-size: 12px;&quot; data-offset-key=&quot;edk77-31-0&quot;&gt;.&lt;/span&gt;&lt;/span&gt;&lt;span style=&quot;box-sizing: border-box; color: rgb(53, 55, 64); font-family: ColfaxAI, helvetica, sans-serif; font-size: 12px; text-align: left; background-color: rgb(255, 255, 255);&quot; data-offset-key=&quot;edk77-32-0&quot;&gt;&lt;span style=&quot;box-sizing: border-box; font-size: 12px;&quot; data-offset-key=&quot;edk77-32-0&quot;&gt; It&lt;/span&gt;&lt;/span&gt;&lt;span style=&quot;box-sizing: border-box; color: rgb(53, 55, 64); font-family: ColfaxAI, helvetica, sans-serif; font-size: 12px; text-align: left; background-color: rgb(255, 255, 255);&quot; data-offset-key=&quot;edk77-33-0&quot;&gt;&lt;span style=&quot;box-sizing: border-box; font-size: 12px;&quot; data-offset-key=&quot;edk77-33-0&quot;&gt; also&lt;/span&gt;&lt;/span&gt;&lt;span style=&quot;box-sizing: border-box; color: rgb(53, 55, 64); font-family: ColfaxAI, helvetica, sans-serif; font-size: 12px; text-align: left; background-color: rgb(255, 255, 255);&quot; data-offset-key=&quot;edk77-34-0&quot;&gt;&lt;span style=&quot;box-sizing: border-box; font-size: 12px;&quot; data-offset-key=&quot;edk77-34-0&quot;&gt; shows&lt;/span&gt;&lt;/span&gt;&lt;span style=&quot;box-sizing: border-box; color: rgb(53, 55, 64); font-family: ColfaxAI, helvetica, sans-serif; font-size: 12px; text-align: left; background-color: rgb(255, 255, 255);&quot; data-offset-key=&quot;edk77-35-0&quot;&gt;&lt;span style=&quot;box-sizing: border-box; font-size: 12px;&quot; data-offset-key=&quot;edk77-35-0&quot;&gt; the&lt;/span&gt;&lt;/span&gt;&lt;span style=&quot;box-sizing: border-box; color: rgb(53, 55, 64); font-family: ColfaxAI, helvetica, sans-serif; font-size: 12px; text-align: left; background-color: rgb(255, 255, 255);&quot; data-offset-key=&quot;edk77-36-0&quot;&gt;&lt;span style=&quot;box-sizing: border-box; font-size: 12px;&quot; data-offset-key=&quot;edk77-36-0&quot;&gt; line&lt;/span&gt;&lt;/span&gt;&lt;span style=&quot;box-sizing: border-box; color: rgb(53, 55, 64); font-family: ColfaxAI, helvetica, sans-serif; font-size: 12px; text-align: left; background-color: rgb(255, 255, 255);&quot; data-offset-key=&quot;edk77-37-0&quot;&gt;&lt;span style=&quot;box-sizing: border-box; font-size: 12px;&quot; data-offset-key=&quot;edk77-37-0&quot;&gt; number&lt;/span&gt;&lt;/span&gt;&lt;span style=&quot;box-sizing: border-box; color: rgb(53, 55, 64); font-family: ColfaxAI, helvetica, sans-serif; font-size: 12px; text-align: left; background-color: rgb(255, 255, 255);&quot; data-offset-key=&quot;edk77-38-0&quot;&gt;&lt;span style=&quot;box-sizing: border-box; font-size: 12px;&quot; data-offset-key=&quot;edk77-38-0&quot;&gt; where&lt;/span&gt;&lt;/span&gt;&lt;span style=&quot;box-sizing: border-box; color: rgb(53, 55, 64); font-family: ColfaxAI, helvetica, sans-serif; font-size: 12px; text-align: left; background-color: rgb(255, 255, 255);&quot; data-offset-key=&quot;edk77-39-0&quot;&gt;&lt;span style=&quot;box-sizing: border-box; font-size: 12px;&quot; data-offset-key=&quot;edk77-39-0&quot;&gt; the&lt;/span&gt;&lt;/span&gt;&lt;span style=&quot;box-sizing: border-box; color: rgb(53, 55, 64); font-family: ColfaxAI, helvetica, sans-serif; font-size: 12px; text-align: left; background-color: rgb(255, 255, 255);&quot; data-offset-key=&quot;edk77-40-0&quot;&gt;&lt;span style=&quot;box-sizing: border-box; font-size: 12px;&quot; data-offset-key=&quot;edk77-40-0&quot;&gt; difference&lt;/span&gt;&lt;/span&gt;&lt;span style=&quot;box-sizing: border-box; color: rgb(53, 55, 64); font-family: ColfaxAI, helvetica, sans-serif; font-size: 12px; text-align: left; background-color: rgb(255, 255, 255);&quot; data-offset-key=&quot;edk77-41-0&quot;&gt;&lt;span style=&quot;box-sizing: border-box; font-size: 12px;&quot; data-offset-key=&quot;edk77-41-0&quot;&gt; appears&lt;/span&gt;&lt;/span&gt;&lt;span style=&quot;box-sizing: border-box; color: rgb(53, 55, 64); font-family: ColfaxAI, helvetica, sans-serif; font-size: 12px; text-align: left; background-color: rgb(255, 255, 255);&quot; data-offset-key=&quot;edk77-42-0&quot;&gt;&lt;span style=&quot;box-sizing: border-box; font-size: 12px;&quot; data-offset-key=&quot;edk77-42-0&quot;&gt; in&lt;/span&gt;&lt;/span&gt;&lt;span style=&quot;box-sizing: border-box; color: rgb(53, 55, 64); font-family: ColfaxAI, helvetica, sans-serif; font-size: 12px; text-align: left; background-color: rgb(255, 255, 255);&quot; data-offset-key=&quot;edk77-43-0&quot;&gt;&lt;span style=&quot;box-sizing: border-box; font-size: 12px;&quot; data-offset-key=&quot;edk77-43-0&quot;&gt; both&lt;/span&gt;&lt;/span&gt;&lt;span style=&quot;box-sizing: border-box; color: rgb(53, 55, 64); font-family: ColfaxAI, helvetica, sans-serif; font-size: 12px; text-align: left; background-color: rgb(255, 255, 255);&quot; data-offset-key=&quot;edk77-44-0&quot;&gt;&lt;span style=&quot;box-sizing: border-box; font-size: 12px;&quot; data-offset-key=&quot;edk77-44-0&quot;&gt; files&lt;/span&gt;&lt;/span&gt;&lt;span style=&quot;box-sizing: border-box; color: rgb(53, 55, 64); font-family: ColfaxAI, helvetica, sans-serif; font-size: 12px; text-align: left; background-color: rgb(255, 255, 255);&quot; data-offset-key=&quot;edk77-45-0&quot;&gt;&lt;span style=&quot;box-sizing: border-box; font-size: 12px;&quot; data-offset-key=&quot;edk77-45-0&quot;&gt;.&lt;/span&gt;&lt;/span&gt;" style="rounded=0;whiteSpace=wrap;html=1;fontSize=12;" vertex="1" parent="1">
          <mxGeometry x="-260" y="350" width="410" height="60" as="geometry" />
        </mxCell>
        <mxCell id="u-VpH2WF8Jtv2nqAHQWA-19" value="" style="shape=cross;whiteSpace=wrap;html=1;fontSize=12;" vertex="1" parent="1">
          <mxGeometry x="-72.5" y="430" width="35" height="30" as="geometry" />
        </mxCell>
        <mxCell id="u-VpH2WF8Jtv2nqAHQWA-20" value="&lt;span style=&quot;box-sizing: border-box; color: rgb(53, 55, 64); font-family: ColfaxAI, helvetica, sans-serif; font-size: 12px; text-align: left; background-color: rgb(255, 255, 255);&quot; data-offset-key=&quot;edk77-48-0&quot;&gt;&lt;span style=&quot;box-sizing: border-box; font-size: 12px;&quot; data-offset-key=&quot;edk77-48-0&quot;&gt;This&lt;/span&gt;&lt;/span&gt;&lt;span style=&quot;box-sizing: border-box; color: rgb(53, 55, 64); font-family: ColfaxAI, helvetica, sans-serif; font-size: 12px; text-align: left; background-color: rgb(255, 255, 255);&quot; data-offset-key=&quot;edk77-49-0&quot;&gt;&lt;span style=&quot;box-sizing: border-box; font-size: 12px;&quot; data-offset-key=&quot;edk77-49-0&quot;&gt; is&lt;/span&gt;&lt;/span&gt;&lt;span style=&quot;box-sizing: border-box; color: rgb(53, 55, 64); font-family: ColfaxAI, helvetica, sans-serif; font-size: 12px; text-align: left; background-color: rgb(255, 255, 255);&quot; data-offset-key=&quot;edk77-50-0&quot;&gt;&lt;span style=&quot;box-sizing: border-box; font-size: 12px;&quot; data-offset-key=&quot;edk77-50-0&quot;&gt; the&lt;/span&gt;&lt;/span&gt;&lt;span style=&quot;box-sizing: border-box; color: rgb(53, 55, 64); font-family: ColfaxAI, helvetica, sans-serif; font-size: 12px; text-align: left; background-color: rgb(255, 255, 255);&quot; data-offset-key=&quot;edk77-51-0&quot;&gt;&lt;span style=&quot;box-sizing: border-box; font-size: 12px;&quot; data-offset-key=&quot;edk77-51-0&quot;&gt; diff&lt;/span&gt;&lt;/span&gt;&lt;span style=&quot;box-sizing: border-box; color: rgb(53, 55, 64); font-family: ColfaxAI, helvetica, sans-serif; font-size: 12px; text-align: left; background-color: rgb(255, 255, 255);&quot; data-offset-key=&quot;edk77-52-0&quot;&gt;&lt;span style=&quot;box-sizing: border-box; font-size: 12px;&quot; data-offset-key=&quot;edk77-52-0&quot;&gt; output&lt;/span&gt;&lt;/span&gt;&lt;span style=&quot;box-sizing: border-box; color: rgb(53, 55, 64); font-family: ColfaxAI, helvetica, sans-serif; font-size: 12px; text-align: left; background-color: rgb(255, 255, 255);&quot; data-offset-key=&quot;edk77-53-0&quot;&gt;&lt;span style=&quot;box-sizing: border-box; font-size: 12px;&quot; data-offset-key=&quot;edk77-53-0&quot;&gt; for&lt;/span&gt;&lt;/span&gt;&lt;span style=&quot;box-sizing: border-box; color: rgb(53, 55, 64); font-family: ColfaxAI, helvetica, sans-serif; font-size: 12px; text-align: left; background-color: rgb(255, 255, 255);&quot; data-offset-key=&quot;edk77-54-0&quot;&gt;&lt;span style=&quot;box-sizing: border-box; font-size: 12px;&quot; data-offset-key=&quot;edk77-54-0&quot;&gt;&amp;nbsp;files &amp;lt;file1&amp;gt;&lt;/span&gt;&lt;/span&gt;&lt;span style=&quot;box-sizing: border-box; color: rgb(53, 55, 64); font-family: ColfaxAI, helvetica, sans-serif; font-size: 12px; text-align: left; background-color: rgb(255, 255, 255);&quot; data-offset-key=&quot;edk77-59-0&quot;&gt;&lt;span style=&quot;box-sizing: border-box; font-size: 12px;&quot; data-offset-key=&quot;edk77-59-0&quot;&gt;&amp;nbsp;and&lt;/span&gt;&lt;/span&gt;&lt;span style=&quot;box-sizing: border-box; color: rgb(53, 55, 64); font-family: ColfaxAI, helvetica, sans-serif; font-size: 12px; text-align: left; background-color: rgb(255, 255, 255);&quot; data-offset-key=&quot;edk77-60-0&quot;&gt;&lt;span style=&quot;box-sizing: border-box; font-size: 12px;&quot; data-offset-key=&quot;edk77-60-0&quot;&gt;&amp;nbsp;&amp;lt;file2&amp;gt;&lt;/span&gt;&lt;/span&gt;&lt;span style=&quot;box-sizing: border-box; color: rgb(53, 55, 64); font-family: ColfaxAI, helvetica, sans-serif; font-size: 12px; text-align: left; background-color: rgb(255, 255, 255);&quot; data-offset-key=&quot;edk77-66-0&quot;&gt;&lt;span style=&quot;box-sizing: border-box; font-size: 12px;&quot; data-offset-key=&quot;edk77-66-0&quot;&gt;:&lt;/span&gt;&lt;/span&gt;" style="rounded=0;whiteSpace=wrap;html=1;fontSize=12;" vertex="1" parent="1">
          <mxGeometry x="-117.5" y="480" width="125" height="50" as="geometry" />
        </mxCell>
        <mxCell id="u-VpH2WF8Jtv2nqAHQWA-21" value="" style="shape=cross;whiteSpace=wrap;html=1;fontSize=12;" vertex="1" parent="1">
          <mxGeometry x="-72.5" y="550" width="35" height="30" as="geometry" />
        </mxCell>
        <mxCell id="u-VpH2WF8Jtv2nqAHQWA-22" value="&lt;div style=&quot;text-align: left;&quot;&gt;&lt;font face=&quot;ColfaxAI, helvetica, sans-serif&quot; color=&quot;#353740&quot;&gt;&lt;span style=&quot;background-color: rgb(255, 255, 255);&quot;&gt;&amp;lt;diff output&amp;gt;&lt;/span&gt;&lt;/font&gt;&lt;/div&gt;" style="rounded=0;whiteSpace=wrap;html=1;fontSize=12;" vertex="1" parent="1">
          <mxGeometry x="-98.75" y="600" width="87.5" height="20" as="geometry" />
        </mxCell>
        <mxCell id="u-VpH2WF8Jtv2nqAHQWA-23" value="" style="shape=cross;whiteSpace=wrap;html=1;fontSize=12;" vertex="1" parent="1">
          <mxGeometry x="-72.5" y="640" width="35" height="30" as="geometry" />
        </mxCell>
        <mxCell id="u-VpH2WF8Jtv2nqAHQWA-24" value="&lt;span style=&quot;box-sizing: border-box; color: rgb(53, 55, 64); font-family: ColfaxAI, helvetica, sans-serif; font-size: 12px; text-align: left; background-color: rgb(255, 255, 255);&quot; data-offset-key=&quot;edk77-383-0&quot;&gt;&lt;span style=&quot;box-sizing: border-box; font-size: 12px;&quot; data-offset-key=&quot;edk77-383-0&quot;&gt;The&lt;/span&gt;&lt;/span&gt;&lt;span style=&quot;box-sizing: border-box; color: rgb(53, 55, 64); font-family: ColfaxAI, helvetica, sans-serif; font-size: 12px; text-align: left; background-color: rgb(255, 255, 255);&quot; data-offset-key=&quot;edk77-384-0&quot;&gt;&lt;span style=&quot;box-sizing: border-box; font-size: 12px;&quot; data-offset-key=&quot;edk77-384-0&quot;&gt; person&lt;/span&gt;&lt;/span&gt;&lt;span style=&quot;box-sizing: border-box; color: rgb(53, 55, 64); font-family: ColfaxAI, helvetica, sans-serif; font-size: 12px; text-align: left; background-color: rgb(255, 255, 255);&quot; data-offset-key=&quot;edk77-385-0&quot;&gt;&lt;span style=&quot;box-sizing: border-box; font-size: 12px;&quot; data-offset-key=&quot;edk77-385-0&quot;&gt; reading&lt;/span&gt;&lt;/span&gt;&lt;span style=&quot;box-sizing: border-box; color: rgb(53, 55, 64); font-family: ColfaxAI, helvetica, sans-serif; font-size: 12px; text-align: left; background-color: rgb(255, 255, 255);&quot; data-offset-key=&quot;edk77-386-0&quot;&gt;&lt;span style=&quot;box-sizing: border-box; font-size: 12px;&quot; data-offset-key=&quot;edk77-386-0&quot;&gt; the&lt;/span&gt;&lt;/span&gt;&lt;span style=&quot;box-sizing: border-box; color: rgb(53, 55, 64); font-family: ColfaxAI, helvetica, sans-serif; font-size: 12px; text-align: left; background-color: rgb(255, 255, 255);&quot; data-offset-key=&quot;edk77-387-0&quot;&gt;&lt;span style=&quot;box-sizing: border-box; font-size: 12px;&quot; data-offset-key=&quot;edk77-387-0&quot;&gt; following&lt;/span&gt;&lt;/span&gt;&lt;span style=&quot;box-sizing: border-box; color: rgb(53, 55, 64); font-family: ColfaxAI, helvetica, sans-serif; font-size: 12px; text-align: left; background-color: rgb(255, 255, 255);&quot; data-offset-key=&quot;edk77-388-0&quot;&gt;&lt;span style=&quot;box-sizing: border-box; font-size: 12px;&quot; data-offset-key=&quot;edk77-388-0&quot;&gt; explanation&lt;/span&gt;&lt;/span&gt;&lt;span style=&quot;box-sizing: border-box; color: rgb(53, 55, 64); font-family: ColfaxAI, helvetica, sans-serif; font-size: 12px; text-align: left; background-color: rgb(255, 255, 255);&quot; data-offset-key=&quot;edk77-389-0&quot;&gt;&lt;span style=&quot;box-sizing: border-box; font-size: 12px;&quot; data-offset-key=&quot;edk77-389-0&quot;&gt; does&lt;/span&gt;&lt;/span&gt;&lt;span style=&quot;box-sizing: border-box; color: rgb(53, 55, 64); font-family: ColfaxAI, helvetica, sans-serif; font-size: 12px; text-align: left; background-color: rgb(255, 255, 255);&quot; data-offset-key=&quot;edk77-390-0&quot;&gt;&lt;span style=&quot;box-sizing: border-box; font-size: 12px;&quot; data-offset-key=&quot;edk77-390-0&quot;&gt; not&lt;/span&gt;&lt;/span&gt;&lt;span style=&quot;box-sizing: border-box; color: rgb(53, 55, 64); font-family: ColfaxAI, helvetica, sans-serif; font-size: 12px; text-align: left; background-color: rgb(255, 255, 255);&quot; data-offset-key=&quot;edk77-391-0&quot;&gt;&lt;span style=&quot;box-sizing: border-box; font-size: 12px;&quot; data-offset-key=&quot;edk77-391-0&quot;&gt; want&lt;/span&gt;&lt;/span&gt;&lt;span style=&quot;box-sizing: border-box; color: rgb(53, 55, 64); font-family: ColfaxAI, helvetica, sans-serif; font-size: 12px; text-align: left; background-color: rgb(255, 255, 255);&quot; data-offset-key=&quot;edk77-392-0&quot;&gt;&lt;span style=&quot;box-sizing: border-box; font-size: 12px;&quot; data-offset-key=&quot;edk77-392-0&quot;&gt; to&lt;/span&gt;&lt;/span&gt;&lt;span style=&quot;box-sizing: border-box; color: rgb(53, 55, 64); font-family: ColfaxAI, helvetica, sans-serif; font-size: 12px; text-align: left; background-color: rgb(255, 255, 255);&quot; data-offset-key=&quot;edk77-393-0&quot;&gt;&lt;span style=&quot;box-sizing: border-box; font-size: 12px;&quot; data-offset-key=&quot;edk77-393-0&quot;&gt; open&lt;/span&gt;&lt;/span&gt;&lt;span style=&quot;box-sizing: border-box; color: rgb(53, 55, 64); font-family: ColfaxAI, helvetica, sans-serif; font-size: 12px; text-align: left; background-color: rgb(255, 255, 255);&quot; data-offset-key=&quot;edk77-394-0&quot;&gt;&lt;span style=&quot;box-sizing: border-box; font-size: 12px;&quot; data-offset-key=&quot;edk77-394-0&quot;&gt; the&lt;/span&gt;&lt;/span&gt;&lt;span style=&quot;box-sizing: border-box; color: rgb(53, 55, 64); font-family: ColfaxAI, helvetica, sans-serif; font-size: 12px; text-align: left; background-color: rgb(255, 255, 255);&quot; data-offset-key=&quot;edk77-395-0&quot;&gt;&lt;span style=&quot;box-sizing: border-box; font-size: 12px;&quot; data-offset-key=&quot;edk77-395-0&quot;&gt; files&lt;/span&gt;&lt;/span&gt;&lt;span style=&quot;box-sizing: border-box; color: rgb(53, 55, 64); font-family: ColfaxAI, helvetica, sans-serif; font-size: 12px; text-align: left; background-color: rgb(255, 255, 255);&quot; data-offset-key=&quot;edk77-396-0&quot;&gt;&lt;span style=&quot;box-sizing: border-box; font-size: 12px;&quot; data-offset-key=&quot;edk77-396-0&quot;&gt;,&lt;/span&gt;&lt;/span&gt;&lt;span style=&quot;box-sizing: border-box; color: rgb(53, 55, 64); font-family: ColfaxAI, helvetica, sans-serif; font-size: 12px; text-align: left; background-color: rgb(255, 255, 255);&quot; data-offset-key=&quot;edk77-397-0&quot;&gt;&lt;span style=&quot;box-sizing: border-box; font-size: 12px;&quot; data-offset-key=&quot;edk77-397-0&quot;&gt; they&lt;/span&gt;&lt;/span&gt;&lt;span style=&quot;box-sizing: border-box; color: rgb(53, 55, 64); font-family: ColfaxAI, helvetica, sans-serif; font-size: 12px; text-align: left; background-color: rgb(255, 255, 255);&quot; data-offset-key=&quot;edk77-398-0&quot;&gt;&lt;span style=&quot;box-sizing: border-box; font-size: 12px;&quot; data-offset-key=&quot;edk77-398-0&quot;&gt; just&lt;/span&gt;&lt;/span&gt;&lt;span style=&quot;box-sizing: border-box; color: rgb(53, 55, 64); font-family: ColfaxAI, helvetica, sans-serif; font-size: 12px; text-align: left; background-color: rgb(255, 255, 255);&quot; data-offset-key=&quot;edk77-399-0&quot;&gt;&lt;span style=&quot;box-sizing: border-box; font-size: 12px;&quot; data-offset-key=&quot;edk77-399-0&quot;&gt; want&lt;/span&gt;&lt;/span&gt;&lt;span style=&quot;box-sizing: border-box; color: rgb(53, 55, 64); font-family: ColfaxAI, helvetica, sans-serif; font-size: 12px; text-align: left; background-color: rgb(255, 255, 255);&quot; data-offset-key=&quot;edk77-400-0&quot;&gt;&lt;span style=&quot;box-sizing: border-box; font-size: 12px;&quot; data-offset-key=&quot;edk77-400-0&quot;&gt; an&lt;/span&gt;&lt;/span&gt;&lt;span style=&quot;box-sizing: border-box; color: rgb(53, 55, 64); font-family: ColfaxAI, helvetica, sans-serif; font-size: 12px; text-align: left; background-color: rgb(255, 255, 255);&quot; data-offset-key=&quot;edk77-401-0&quot;&gt;&lt;span style=&quot;box-sizing: border-box; font-size: 12px;&quot; data-offset-key=&quot;edk77-401-0&quot;&gt; explanation&lt;/span&gt;&lt;/span&gt;&lt;span style=&quot;box-sizing: border-box; color: rgb(53, 55, 64); font-family: ColfaxAI, helvetica, sans-serif; font-size: 12px; text-align: left; background-color: rgb(255, 255, 255);&quot; data-offset-key=&quot;edk77-402-0&quot;&gt;&lt;span style=&quot;box-sizing: border-box; font-size: 12px;&quot; data-offset-key=&quot;edk77-402-0&quot;&gt; of&lt;/span&gt;&lt;/span&gt;&lt;span style=&quot;box-sizing: border-box; color: rgb(53, 55, 64); font-family: ColfaxAI, helvetica, sans-serif; font-size: 12px; text-align: left; background-color: rgb(255, 255, 255);&quot; data-offset-key=&quot;edk77-403-0&quot;&gt;&lt;span style=&quot;box-sizing: border-box; font-size: 12px;&quot; data-offset-key=&quot;edk77-403-0&quot;&gt; differences&lt;/span&gt;&lt;/span&gt;&lt;span style=&quot;box-sizing: border-box; color: rgb(53, 55, 64); font-family: ColfaxAI, helvetica, sans-serif; font-size: 12px; text-align: left; background-color: rgb(255, 255, 255);&quot; data-offset-key=&quot;edk77-404-0&quot;&gt;&lt;span style=&quot;box-sizing: border-box; font-size: 12px;&quot; data-offset-key=&quot;edk77-404-0&quot;&gt; concept&lt;/span&gt;&lt;/span&gt;&lt;span style=&quot;box-sizing: border-box; color: rgb(53, 55, 64); font-family: ColfaxAI, helvetica, sans-serif; font-size: 12px; text-align: left; background-color: rgb(255, 255, 255);&quot; data-offset-key=&quot;edk77-405-0&quot;&gt;&lt;span style=&quot;box-sizing: border-box; font-size: 12px;&quot; data-offset-key=&quot;edk77-405-0&quot;&gt;ually&lt;/span&gt;&lt;/span&gt;&lt;span style=&quot;box-sizing: border-box; color: rgb(53, 55, 64); font-family: ColfaxAI, helvetica, sans-serif; font-size: 12px; text-align: left; background-color: rgb(255, 255, 255);&quot; data-offset-key=&quot;edk77-406-0&quot;&gt;&lt;span style=&quot;box-sizing: border-box; font-size: 12px;&quot; data-offset-key=&quot;edk77-406-0&quot;&gt;.&lt;/span&gt;&lt;/span&gt;&lt;span style=&quot;box-sizing: border-box; color: rgb(53, 55, 64); font-family: ColfaxAI, helvetica, sans-serif; font-size: 12px; text-align: left; background-color: rgb(255, 255, 255);&quot; data-offset-key=&quot;edk77-407-0&quot;&gt;&lt;span style=&quot;box-sizing: border-box; font-size: 12px;&quot; data-offset-key=&quot;edk77-407-0&quot;&gt; In&lt;/span&gt;&lt;/span&gt;&lt;span style=&quot;box-sizing: border-box; color: rgb(53, 55, 64); font-family: ColfaxAI, helvetica, sans-serif; font-size: 12px; text-align: left; background-color: rgb(255, 255, 255);&quot; data-offset-key=&quot;edk77-408-0&quot;&gt;&lt;span style=&quot;box-sizing: border-box; font-size: 12px;&quot; data-offset-key=&quot;edk77-408-0&quot;&gt; a&lt;/span&gt;&lt;/span&gt;&lt;span style=&quot;box-sizing: border-box; color: rgb(53, 55, 64); font-family: ColfaxAI, helvetica, sans-serif; font-size: 12px; text-align: left; background-color: rgb(255, 255, 255);&quot; data-offset-key=&quot;edk77-409-0&quot;&gt;&lt;span style=&quot;box-sizing: border-box; font-size: 12px;&quot; data-offset-key=&quot;edk77-409-0&quot;&gt; numbered&lt;/span&gt;&lt;/span&gt;&lt;span style=&quot;box-sizing: border-box; color: rgb(53, 55, 64); font-family: ColfaxAI, helvetica, sans-serif; font-size: 12px; text-align: left; background-color: rgb(255, 255, 255);&quot; data-offset-key=&quot;edk77-410-0&quot;&gt;&lt;span style=&quot;box-sizing: border-box; font-size: 12px;&quot; data-offset-key=&quot;edk77-410-0&quot;&gt; list&lt;/span&gt;&lt;/span&gt;&lt;span style=&quot;box-sizing: border-box; color: rgb(53, 55, 64); font-family: ColfaxAI, helvetica, sans-serif; font-size: 12px; text-align: left; background-color: rgb(255, 255, 255);&quot; data-offset-key=&quot;edk77-411-0&quot;&gt;&lt;span style=&quot;box-sizing: border-box; font-size: 12px;&quot; data-offset-key=&quot;edk77-411-0&quot;&gt; format&lt;/span&gt;&lt;/span&gt;&lt;span style=&quot;box-sizing: border-box; color: rgb(53, 55, 64); font-family: ColfaxAI, helvetica, sans-serif; font-size: 12px; text-align: left; background-color: rgb(255, 255, 255);&quot; data-offset-key=&quot;edk77-412-0&quot;&gt;&lt;span style=&quot;box-sizing: border-box; font-size: 12px;&quot; data-offset-key=&quot;edk77-412-0&quot;&gt; (&lt;/span&gt;&lt;/span&gt;&lt;span style=&quot;box-sizing: border-box; color: rgb(53, 55, 64); font-family: ColfaxAI, helvetica, sans-serif; font-size: 12px; text-align: left; background-color: rgb(255, 255, 255);&quot; data-offset-key=&quot;edk77-413-0&quot;&gt;&lt;span style=&quot;box-sizing: border-box; font-size: 12px;&quot; data-offset-key=&quot;edk77-413-0&quot;&gt;with&lt;/span&gt;&lt;/span&gt;&lt;span style=&quot;box-sizing: border-box; color: rgb(53, 55, 64); font-family: ColfaxAI, helvetica, sans-serif; font-size: 12px; text-align: left; background-color: rgb(255, 255, 255);&quot; data-offset-key=&quot;edk77-414-0&quot;&gt;&lt;span style=&quot;box-sizing: border-box; font-size: 12px;&quot; data-offset-key=&quot;edk77-414-0&quot;&gt; no&lt;/span&gt;&lt;/span&gt;&lt;span style=&quot;box-sizing: border-box; color: rgb(53, 55, 64); font-family: ColfaxAI, helvetica, sans-serif; font-size: 12px; text-align: left; background-color: rgb(255, 255, 255);&quot; data-offset-key=&quot;edk77-415-0&quot;&gt;&lt;span style=&quot;box-sizing: border-box; font-size: 12px;&quot; data-offset-key=&quot;edk77-415-0&quot;&gt; spaces&lt;/span&gt;&lt;/span&gt;&lt;span style=&quot;box-sizing: border-box; color: rgb(53, 55, 64); font-family: ColfaxAI, helvetica, sans-serif; font-size: 12px; text-align: left; background-color: rgb(255, 255, 255);&quot; data-offset-key=&quot;edk77-416-0&quot;&gt;&lt;span style=&quot;box-sizing: border-box; font-size: 12px;&quot; data-offset-key=&quot;edk77-416-0&quot;&gt; between&lt;/span&gt;&lt;/span&gt;&lt;span style=&quot;box-sizing: border-box; color: rgb(53, 55, 64); font-family: ColfaxAI, helvetica, sans-serif; font-size: 12px; text-align: left; background-color: rgb(255, 255, 255);&quot; data-offset-key=&quot;edk77-417-0&quot;&gt;&lt;span style=&quot;box-sizing: border-box; font-size: 12px;&quot; data-offset-key=&quot;edk77-417-0&quot;&gt; lines&lt;/span&gt;&lt;/span&gt;&lt;span style=&quot;box-sizing: border-box; color: rgb(53, 55, 64); font-family: ColfaxAI, helvetica, sans-serif; font-size: 12px; text-align: left; background-color: rgb(255, 255, 255);&quot; data-offset-key=&quot;edk77-418-0&quot;&gt;&lt;span style=&quot;box-sizing: border-box; font-size: 12px;&quot; data-offset-key=&quot;edk77-418-0&quot;&gt;),&lt;/span&gt;&lt;/span&gt;&lt;span style=&quot;box-sizing: border-box; color: rgb(53, 55, 64); font-family: ColfaxAI, helvetica, sans-serif; font-size: 12px; text-align: left; background-color: rgb(255, 255, 255);&quot; data-offset-key=&quot;edk77-419-0&quot;&gt;&lt;span style=&quot;box-sizing: border-box; font-size: 12px;&quot; data-offset-key=&quot;edk77-419-0&quot;&gt; explain&lt;/span&gt;&lt;/span&gt;&lt;span style=&quot;box-sizing: border-box; color: rgb(53, 55, 64); font-family: ColfaxAI, helvetica, sans-serif; font-size: 12px; text-align: left; background-color: rgb(255, 255, 255);&quot; data-offset-key=&quot;edk77-420-0&quot;&gt;&lt;span style=&quot;box-sizing: border-box; font-size: 12px;&quot; data-offset-key=&quot;edk77-420-0&quot;&gt; all&lt;/span&gt;&lt;/span&gt;&lt;span style=&quot;box-sizing: border-box; color: rgb(53, 55, 64); font-family: ColfaxAI, helvetica, sans-serif; font-size: 12px; text-align: left; background-color: rgb(255, 255, 255);&quot; data-offset-key=&quot;edk77-421-0&quot;&gt;&lt;span style=&quot;box-sizing: border-box; font-size: 12px;&quot; data-offset-key=&quot;edk77-421-0&quot;&gt; the&lt;/span&gt;&lt;/span&gt;&lt;span style=&quot;box-sizing: border-box; color: rgb(53, 55, 64); font-family: ColfaxAI, helvetica, sans-serif; font-size: 12px; text-align: left; background-color: rgb(255, 255, 255);&quot; data-offset-key=&quot;edk77-422-0&quot;&gt;&lt;span style=&quot;box-sizing: border-box; font-size: 12px;&quot; data-offset-key=&quot;edk77-422-0&quot;&gt; differences&lt;/span&gt;&lt;/span&gt;&lt;span style=&quot;box-sizing: border-box; color: rgb(53, 55, 64); font-family: ColfaxAI, helvetica, sans-serif; font-size: 12px; text-align: left; background-color: rgb(255, 255, 255);&quot; data-offset-key=&quot;edk77-423-0&quot;&gt;&lt;span style=&quot;box-sizing: border-box; font-size: 12px;&quot; data-offset-key=&quot;edk77-423-0&quot;&gt; between&lt;/span&gt;&lt;/span&gt;&lt;span style=&quot;box-sizing: border-box; color: rgb(53, 55, 64); font-family: ColfaxAI, helvetica, sans-serif; font-size: 12px; text-align: left; background-color: rgb(255, 255, 255);&quot; data-offset-key=&quot;edk77-424-0&quot;&gt;&lt;span style=&quot;box-sizing: border-box; font-size: 12px;&quot; data-offset-key=&quot;edk77-424-0&quot;&gt; block&lt;/span&gt;&lt;/span&gt;&lt;span style=&quot;box-sizing: border-box; color: rgb(53, 55, 64); font-family: ColfaxAI, helvetica, sans-serif; font-size: 12px; text-align: left; background-color: rgb(255, 255, 255);&quot; data-offset-key=&quot;edk77-425-0&quot;&gt;&lt;span style=&quot;box-sizing: border-box; font-size: 12px;&quot; data-offset-key=&quot;edk77-425-0&quot;&gt;-&lt;/span&gt;&lt;/span&gt;&lt;span style=&quot;box-sizing: border-box; color: rgb(53, 55, 64); font-family: ColfaxAI, helvetica, sans-serif; font-size: 12px; text-align: left; background-color: rgb(255, 255, 255);&quot; data-offset-key=&quot;edk77-426-0&quot;&gt;&lt;span style=&quot;box-sizing: border-box; font-size: 12px;&quot; data-offset-key=&quot;edk77-426-0&quot;&gt;in&lt;/span&gt;&lt;/span&gt;&lt;span style=&quot;box-sizing: border-box; color: rgb(53, 55, 64); font-family: ColfaxAI, helvetica, sans-serif; font-size: 12px; text-align: left; background-color: rgb(255, 255, 255);&quot; data-offset-key=&quot;edk77-427-0&quot;&gt;&lt;span style=&quot;box-sizing: border-box; font-size: 12px;&quot; data-offset-key=&quot;edk77-427-0&quot;&gt;flight&lt;/span&gt;&lt;/span&gt;&lt;span style=&quot;box-sizing: border-box; color: rgb(53, 55, 64); font-family: ColfaxAI, helvetica, sans-serif; font-size: 12px; text-align: left; background-color: rgb(255, 255, 255);&quot; data-offset-key=&quot;edk77-428-0&quot;&gt;&lt;span style=&quot;box-sizing: border-box; font-size: 12px;&quot; data-offset-key=&quot;edk77-428-0&quot;&gt; and&lt;/span&gt;&lt;/span&gt;&lt;span style=&quot;box-sizing: border-box; color: rgb(53, 55, 64); font-family: ColfaxAI, helvetica, sans-serif; font-size: 12px; text-align: left; background-color: rgb(255, 255, 255);&quot; data-offset-key=&quot;edk77-429-0&quot;&gt;&lt;span style=&quot;box-sizing: border-box; font-size: 12px;&quot; data-offset-key=&quot;edk77-429-0&quot;&gt; cro&lt;/span&gt;&lt;/span&gt;&lt;span style=&quot;box-sizing: border-box; color: rgb(53, 55, 64); font-family: ColfaxAI, helvetica, sans-serif; font-size: 12px; text-align: left; background-color: rgb(255, 255, 255);&quot; data-offset-key=&quot;edk77-430-0&quot;&gt;&lt;span style=&quot;box-sizing: border-box; font-size: 12px;&quot; data-offset-key=&quot;edk77-430-0&quot;&gt;ck&lt;/span&gt;&lt;/span&gt;&lt;span style=&quot;box-sizing: border-box; color: rgb(53, 55, 64); font-family: ColfaxAI, helvetica, sans-serif; font-size: 12px; text-align: left; background-color: rgb(255, 255, 255);&quot; data-offset-key=&quot;edk77-431-0&quot;&gt;&lt;span style=&quot;box-sizing: border-box; font-size: 12px;&quot; data-offset-key=&quot;edk77-431-0&quot;&gt;le&lt;/span&gt;&lt;/span&gt;&lt;span style=&quot;box-sizing: border-box; color: rgb(53, 55, 64); font-family: ColfaxAI, helvetica, sans-serif; font-size: 12px; text-align: left; background-color: rgb(255, 255, 255);&quot; data-offset-key=&quot;edk77-432-0&quot;&gt;&lt;span style=&quot;box-sizing: border-box; font-size: 12px;&quot; data-offset-key=&quot;edk77-432-0&quot;&gt;-&lt;/span&gt;&lt;/span&gt;&lt;span style=&quot;box-sizing: border-box; color: rgb(53, 55, 64); font-family: ColfaxAI, helvetica, sans-serif; font-size: 12px; text-align: left; background-color: rgb(255, 255, 255);&quot; data-offset-key=&quot;edk77-433-0&quot;&gt;&lt;span style=&quot;box-sizing: border-box; font-size: 12px;&quot; data-offset-key=&quot;edk77-433-0&quot;&gt;inf&lt;/span&gt;&lt;/span&gt;&lt;span style=&quot;box-sizing: border-box; color: rgb(53, 55, 64); font-family: ColfaxAI, helvetica, sans-serif; font-size: 12px; text-align: left; background-color: rgb(255, 255, 255);&quot; data-offset-key=&quot;edk77-434-0&quot;&gt;&lt;span style=&quot;box-sizing: border-box; font-size: 12px;&quot; data-offset-key=&quot;edk77-434-0&quot;&gt;ight&lt;/span&gt;&lt;/span&gt;&lt;span style=&quot;box-sizing: border-box; color: rgb(53, 55, 64); font-family: ColfaxAI, helvetica, sans-serif; font-size: 12px; text-align: left; background-color: rgb(255, 255, 255);&quot; data-offset-key=&quot;edk77-435-0&quot;&gt;&lt;span style=&quot;box-sizing: border-box; font-size: 12px;&quot; data-offset-key=&quot;edk77-435-0&quot;&gt; and&lt;/span&gt;&lt;/span&gt;&lt;span style=&quot;box-sizing: border-box; color: rgb(53, 55, 64); font-family: ColfaxAI, helvetica, sans-serif; font-size: 12px; text-align: left; background-color: rgb(255, 255, 255);&quot; data-offset-key=&quot;edk77-436-0&quot;&gt;&lt;span style=&quot;box-sizing: border-box; font-size: 12px;&quot; data-offset-key=&quot;edk77-436-0&quot;&gt; what&lt;/span&gt;&lt;/span&gt;&lt;span style=&quot;box-sizing: border-box; color: rgb(53, 55, 64); font-family: ColfaxAI, helvetica, sans-serif; font-size: 12px; text-align: left; background-color: rgb(255, 255, 255);&quot; data-offset-key=&quot;edk77-437-0&quot;&gt;&lt;span style=&quot;box-sizing: border-box; font-size: 12px;&quot; data-offset-key=&quot;edk77-437-0&quot;&gt; it&lt;/span&gt;&lt;/span&gt;&lt;span style=&quot;box-sizing: border-box; color: rgb(53, 55, 64); font-family: ColfaxAI, helvetica, sans-serif; font-size: 12px; text-align: left; background-color: rgb(255, 255, 255);&quot; data-offset-key=&quot;edk77-438-0&quot;&gt;&lt;span style=&quot;box-sizing: border-box; font-size: 12px;&quot; data-offset-key=&quot;edk77-438-0&quot;&gt; might&lt;/span&gt;&lt;/span&gt;&lt;span style=&quot;box-sizing: border-box; color: rgb(53, 55, 64); font-family: ColfaxAI, helvetica, sans-serif; font-size: 12px; text-align: left; background-color: rgb(255, 255, 255);&quot; data-offset-key=&quot;edk77-439-0&quot;&gt;&lt;span style=&quot;box-sizing: border-box; font-size: 12px;&quot; data-offset-key=&quot;edk77-439-0&quot;&gt; mean&lt;/span&gt;&lt;/span&gt;&lt;span style=&quot;box-sizing: border-box; color: rgb(53, 55, 64); font-family: ColfaxAI, helvetica, sans-serif; font-size: 12px; text-align: left; background-color: rgb(255, 255, 255);&quot; data-offset-key=&quot;edk77-440-0&quot;&gt;&lt;span style=&quot;box-sizing: border-box; font-size: 12px;&quot; data-offset-key=&quot;edk77-440-0&quot;&gt; in&lt;/span&gt;&lt;/span&gt;&lt;span style=&quot;box-sizing: border-box; color: rgb(53, 55, 64); font-family: ColfaxAI, helvetica, sans-serif; font-size: 12px; text-align: left; background-color: rgb(255, 255, 255);&quot; data-offset-key=&quot;edk77-441-0&quot;&gt;&lt;span style=&quot;box-sizing: border-box; font-size: 12px;&quot; data-offset-key=&quot;edk77-441-0&quot;&gt; the&lt;/span&gt;&lt;/span&gt;&lt;span style=&quot;box-sizing: border-box; color: rgb(53, 55, 64); font-family: ColfaxAI, helvetica, sans-serif; font-size: 12px; text-align: left; background-color: rgb(255, 255, 255);&quot; data-offset-key=&quot;edk77-442-0&quot;&gt;&lt;span style=&quot;box-sizing: border-box; font-size: 12px;&quot; data-offset-key=&quot;edk77-442-0&quot;&gt; context&lt;/span&gt;&lt;/span&gt;&lt;span style=&quot;box-sizing: border-box; color: rgb(53, 55, 64); font-family: ColfaxAI, helvetica, sans-serif; font-size: 12px; text-align: left; background-color: rgb(255, 255, 255);&quot; data-offset-key=&quot;edk77-443-0&quot;&gt;&lt;span style=&quot;box-sizing: border-box; font-size: 12px;&quot; data-offset-key=&quot;edk77-443-0&quot;&gt; of&lt;/span&gt;&lt;/span&gt;&lt;span style=&quot;box-sizing: border-box; color: rgb(53, 55, 64); font-family: ColfaxAI, helvetica, sans-serif; font-size: 12px; text-align: left; background-color: rgb(255, 255, 255);&quot; data-offset-key=&quot;edk77-444-0&quot;&gt;&lt;span style=&quot;box-sizing: border-box; font-size: 12px;&quot; data-offset-key=&quot;edk77-444-0&quot;&gt; these&lt;/span&gt;&lt;/span&gt;&lt;span style=&quot;box-sizing: border-box; color: rgb(53, 55, 64); font-family: ColfaxAI, helvetica, sans-serif; font-size: 12px; text-align: left; background-color: rgb(255, 255, 255);&quot; data-offset-key=&quot;edk77-445-0&quot;&gt;&lt;span style=&quot;box-sizing: border-box; font-size: 12px;&quot; data-offset-key=&quot;edk77-445-0&quot;&gt; files&lt;/span&gt;&lt;/span&gt;&lt;span style=&quot;box-sizing: border-box; color: rgb(53, 55, 64); font-family: ColfaxAI, helvetica, sans-serif; font-size: 12px; text-align: left; background-color: rgb(255, 255, 255);&quot; data-offset-key=&quot;edk77-446-0&quot;&gt;&lt;span style=&quot;box-sizing: border-box; font-size: 12px;&quot; data-offset-key=&quot;edk77-446-0&quot;&gt;.&lt;/span&gt;&lt;/span&gt;&lt;span style=&quot;box-sizing: border-box; color: rgb(53, 55, 64); font-family: ColfaxAI, helvetica, sans-serif; font-size: 12px; text-align: left; background-color: rgb(255, 255, 255);&quot; data-offset-key=&quot;edk77-447-0&quot;&gt;&lt;span style=&quot;box-sizing: border-box; font-size: 12px;&quot; data-offset-key=&quot;edk77-447-0&quot;&gt;&lt;br style=&quot;font-size: 12px;&quot;&gt;&lt;/span&gt;&lt;/span&gt;&lt;span style=&quot;box-sizing: border-box; color: rgb(53, 55, 64); font-family: ColfaxAI, helvetica, sans-serif; font-size: 12px; text-align: left; background-color: rgb(255, 255, 255);&quot; data-offset-key=&quot;edk77-448-0&quot;&gt;&lt;span style=&quot;box-sizing: border-box; font-size: 12px;&quot; data-offset-key=&quot;edk77-448-0&quot;&gt;Please&lt;/span&gt;&lt;/span&gt;&lt;span style=&quot;box-sizing: border-box; color: rgb(53, 55, 64); font-family: ColfaxAI, helvetica, sans-serif; font-size: 12px; text-align: left; background-color: rgb(255, 255, 255);&quot; data-offset-key=&quot;edk77-449-0&quot;&gt;&lt;span style=&quot;box-sizing: border-box; font-size: 12px;&quot; data-offset-key=&quot;edk77-449-0&quot;&gt; put&lt;/span&gt;&lt;/span&gt;&lt;span style=&quot;box-sizing: border-box; color: rgb(53, 55, 64); font-family: ColfaxAI, helvetica, sans-serif; font-size: 12px; text-align: left; background-color: rgb(255, 255, 255);&quot; data-offset-key=&quot;edk77-450-0&quot;&gt;&lt;span style=&quot;box-sizing: border-box; font-size: 12px;&quot; data-offset-key=&quot;edk77-450-0&quot;&gt; it&lt;/span&gt;&lt;/span&gt;&lt;span style=&quot;box-sizing: border-box; color: rgb(53, 55, 64); font-family: ColfaxAI, helvetica, sans-serif; font-size: 12px; text-align: left; background-color: rgb(255, 255, 255);&quot; data-offset-key=&quot;edk77-451-0&quot;&gt;&lt;span style=&quot;box-sizing: border-box; font-size: 12px;&quot; data-offset-key=&quot;edk77-451-0&quot;&gt; in&lt;/span&gt;&lt;/span&gt;&lt;span style=&quot;box-sizing: border-box; color: rgb(53, 55, 64); font-family: ColfaxAI, helvetica, sans-serif; font-size: 12px; text-align: left; background-color: rgb(255, 255, 255);&quot; data-offset-key=&quot;edk77-452-0&quot;&gt;&lt;span style=&quot;box-sizing: border-box; font-size: 12px;&quot; data-offset-key=&quot;edk77-452-0&quot;&gt; the&lt;/span&gt;&lt;/span&gt;&lt;span style=&quot;box-sizing: border-box; color: rgb(53, 55, 64); font-family: ColfaxAI, helvetica, sans-serif; font-size: 12px; text-align: left; background-color: rgb(255, 255, 255);&quot; data-offset-key=&quot;edk77-453-0&quot;&gt;&lt;span style=&quot;box-sizing: border-box; font-size: 12px;&quot; data-offset-key=&quot;edk77-453-0&quot;&gt; following&lt;/span&gt;&lt;/span&gt;&lt;span style=&quot;box-sizing: border-box; color: rgb(53, 55, 64); font-family: ColfaxAI, helvetica, sans-serif; font-size: 12px; text-align: left; background-color: rgb(255, 255, 255);&quot; data-offset-key=&quot;edk77-454-0&quot;&gt;&lt;span style=&quot;box-sizing: border-box; font-size: 12px;&quot; data-offset-key=&quot;edk77-454-0&quot;&gt; format&lt;/span&gt;&lt;/span&gt;&lt;span style=&quot;box-sizing: border-box; color: rgb(53, 55, 64); font-family: ColfaxAI, helvetica, sans-serif; font-size: 12px; text-align: left; background-color: rgb(255, 255, 255);&quot; data-offset-key=&quot;edk77-455-0&quot;&gt;&lt;span style=&quot;box-sizing: border-box; font-size: 12px;&quot; data-offset-key=&quot;edk77-455-0&quot;&gt;:&lt;/span&gt;&lt;/span&gt;&lt;span style=&quot;box-sizing: border-box; color: rgb(53, 55, 64); font-family: ColfaxAI, helvetica, sans-serif; font-size: 12px; text-align: left; background-color: rgb(255, 255, 255);&quot; data-offset-key=&quot;edk77-456-0&quot;&gt;&lt;span style=&quot;box-sizing: border-box; font-size: 12px;&quot; data-offset-key=&quot;edk77-456-0&quot;&gt;&lt;br style=&quot;font-size: 12px;&quot;&gt;&lt;/span&gt;&lt;/span&gt;&lt;span style=&quot;box-sizing: border-box; color: rgb(53, 55, 64); font-family: ColfaxAI, helvetica, sans-serif; font-size: 12px; text-align: left; background-color: rgb(255, 255, 255);&quot; data-offset-key=&quot;edk77-457-0&quot;&gt;&lt;span style=&quot;box-sizing: border-box; font-size: 12px;&quot; data-offset-key=&quot;edk77-457-0&quot;&gt;1&lt;/span&gt;&lt;/span&gt;&lt;span style=&quot;box-sizing: border-box; color: rgb(53, 55, 64); font-family: ColfaxAI, helvetica, sans-serif; font-size: 12px; text-align: left; background-color: rgb(255, 255, 255);&quot; data-offset-key=&quot;edk77-458-0&quot;&gt;&lt;span style=&quot;box-sizing: border-box; font-size: 12px;&quot; data-offset-key=&quot;edk77-458-0&quot;&gt;.&lt;/span&gt;&lt;/span&gt;&lt;span style=&quot;box-sizing: border-box; color: rgb(53, 55, 64); font-family: ColfaxAI, helvetica, sans-serif; font-size: 12px; text-align: left; background-color: rgb(255, 255, 255);&quot; data-offset-key=&quot;edk77-459-0&quot;&gt;&lt;span style=&quot;box-sizing: border-box; font-size: 12px;&quot; data-offset-key=&quot;edk77-459-0&quot;&gt; some&lt;/span&gt;&lt;/span&gt;&lt;span style=&quot;box-sizing: border-box; color: rgb(53, 55, 64); font-family: ColfaxAI, helvetica, sans-serif; font-size: 12px; text-align: left; background-color: rgb(255, 255, 255);&quot; data-offset-key=&quot;edk77-460-0&quot;&gt;&lt;span style=&quot;box-sizing: border-box; font-size: 12px;&quot; data-offset-key=&quot;edk77-460-0&quot;&gt; difference&lt;/span&gt;&lt;/span&gt;&lt;span style=&quot;box-sizing: border-box; color: rgb(53, 55, 64); font-family: ColfaxAI, helvetica, sans-serif; font-size: 12px; text-align: left; background-color: rgb(255, 255, 255);&quot; data-offset-key=&quot;edk77-461-0&quot;&gt;&lt;span style=&quot;box-sizing: border-box; font-size: 12px;&quot; data-offset-key=&quot;edk77-461-0&quot;&gt; explanation&lt;/span&gt;&lt;/span&gt;&lt;span style=&quot;box-sizing: border-box; color: rgb(53, 55, 64); font-family: ColfaxAI, helvetica, sans-serif; font-size: 12px; text-align: left; background-color: rgb(255, 255, 255);&quot; data-offset-key=&quot;edk77-462-0&quot;&gt;&lt;span style=&quot;box-sizing: border-box; font-size: 12px;&quot; data-offset-key=&quot;edk77-462-0&quot;&gt; that&lt;/span&gt;&lt;/span&gt;&lt;span style=&quot;box-sizing: border-box; color: rgb(53, 55, 64); font-family: ColfaxAI, helvetica, sans-serif; font-size: 12px; text-align: left; background-color: rgb(255, 255, 255);&quot; data-offset-key=&quot;edk77-463-0&quot;&gt;&lt;span style=&quot;box-sizing: border-box; font-size: 12px;&quot; data-offset-key=&quot;edk77-463-0&quot;&gt; is&lt;/span&gt;&lt;/span&gt;&lt;span style=&quot;box-sizing: border-box; color: rgb(53, 55, 64); font-family: ColfaxAI, helvetica, sans-serif; font-size: 12px; text-align: left; background-color: rgb(255, 255, 255);&quot; data-offset-key=&quot;edk77-464-0&quot;&gt;&lt;span style=&quot;box-sizing: border-box; font-size: 12px;&quot; data-offset-key=&quot;edk77-464-0&quot;&gt; less&lt;/span&gt;&lt;/span&gt;&lt;span style=&quot;box-sizing: border-box; color: rgb(53, 55, 64); font-family: ColfaxAI, helvetica, sans-serif; font-size: 12px; text-align: left; background-color: rgb(255, 255, 255);&quot; data-offset-key=&quot;edk77-465-0&quot;&gt;&lt;span style=&quot;box-sizing: border-box; font-size: 12px;&quot; data-offset-key=&quot;edk77-465-0&quot;&gt; than&lt;/span&gt;&lt;/span&gt;&lt;span style=&quot;box-sizing: border-box; color: rgb(53, 55, 64); font-family: ColfaxAI, helvetica, sans-serif; font-size: 12px; text-align: left; background-color: rgb(255, 255, 255);&quot; data-offset-key=&quot;edk77-466-0&quot;&gt;&lt;span style=&quot;box-sizing: border-box; font-size: 12px;&quot; data-offset-key=&quot;edk77-466-0&quot;&gt; 4&lt;/span&gt;&lt;/span&gt;&lt;span style=&quot;box-sizing: border-box; color: rgb(53, 55, 64); font-family: ColfaxAI, helvetica, sans-serif; font-size: 12px; text-align: left; background-color: rgb(255, 255, 255);&quot; data-offset-key=&quot;edk77-467-0&quot;&gt;&lt;span style=&quot;box-sizing: border-box; font-size: 12px;&quot; data-offset-key=&quot;edk77-467-0&quot;&gt; sentences&lt;/span&gt;&lt;/span&gt;&lt;span style=&quot;box-sizing: border-box; color: rgb(53, 55, 64); font-family: ColfaxAI, helvetica, sans-serif; font-size: 12px; text-align: left; background-color: rgb(255, 255, 255);&quot; data-offset-key=&quot;edk77-468-0&quot;&gt;&lt;span style=&quot;box-sizing: border-box; font-size: 12px;&quot; data-offset-key=&quot;edk77-468-0&quot;&gt;.&lt;/span&gt;&lt;/span&gt;&lt;span style=&quot;box-sizing: border-box; color: rgb(53, 55, 64); font-family: ColfaxAI, helvetica, sans-serif; font-size: 12px; text-align: left; background-color: rgb(255, 255, 255);&quot; data-offset-key=&quot;edk77-469-0&quot;&gt;&lt;span style=&quot;box-sizing: border-box; font-size: 12px;&quot; data-offset-key=&quot;edk77-469-0&quot;&gt; &lt;/span&gt;&lt;/span&gt;&lt;span style=&quot;box-sizing: border-box; color: rgb(53, 55, 64); font-family: ColfaxAI, helvetica, sans-serif; font-size: 12px; text-align: left; background-color: rgb(255, 255, 255);&quot; data-offset-key=&quot;edk77-470-0&quot;&gt;&lt;span style=&quot;box-sizing: border-box; font-size: 12px;&quot; data-offset-key=&quot;edk77-470-0&quot;&gt;&lt;br style=&quot;font-size: 12px;&quot;&gt;&lt;/span&gt;&lt;/span&gt;&lt;span style=&quot;box-sizing: border-box; color: rgb(53, 55, 64); font-family: ColfaxAI, helvetica, sans-serif; font-size: 12px; text-align: left; background-color: rgb(255, 255, 255);&quot; data-offset-key=&quot;edk77-471-0&quot;&gt;&lt;span style=&quot;box-sizing: border-box; font-size: 12px;&quot; data-offset-key=&quot;edk77-471-0&quot;&gt;2&lt;/span&gt;&lt;/span&gt;&lt;span style=&quot;box-sizing: border-box; color: rgb(53, 55, 64); font-family: ColfaxAI, helvetica, sans-serif; font-size: 12px; text-align: left; background-color: rgb(255, 255, 255);&quot; data-offset-key=&quot;edk77-472-0&quot;&gt;&lt;span style=&quot;box-sizing: border-box; font-size: 12px;&quot; data-offset-key=&quot;edk77-472-0&quot;&gt;.&lt;/span&gt;&lt;/span&gt;&lt;span style=&quot;box-sizing: border-box; color: rgb(53, 55, 64); font-family: ColfaxAI, helvetica, sans-serif; font-size: 12px; text-align: left; background-color: rgb(255, 255, 255);&quot; data-offset-key=&quot;edk77-473-0&quot;&gt;&lt;span style=&quot;box-sizing: border-box; font-size: 12px;&quot; data-offset-key=&quot;edk77-473-0&quot;&gt; another&lt;/span&gt;&lt;/span&gt;&lt;span style=&quot;box-sizing: border-box; color: rgb(53, 55, 64); font-family: ColfaxAI, helvetica, sans-serif; font-size: 12px; text-align: left; background-color: rgb(255, 255, 255);&quot; data-offset-key=&quot;edk77-474-0&quot;&gt;&lt;span style=&quot;box-sizing: border-box; font-size: 12px;&quot; data-offset-key=&quot;edk77-474-0&quot;&gt; difference&lt;/span&gt;&lt;/span&gt;&lt;span style=&quot;box-sizing: border-box; color: rgb(53, 55, 64); font-family: ColfaxAI, helvetica, sans-serif; font-size: 12px; text-align: left; background-color: rgb(255, 255, 255);&quot; data-offset-key=&quot;edk77-475-0&quot;&gt;&lt;span style=&quot;box-sizing: border-box; font-size: 12px;&quot; data-offset-key=&quot;edk77-475-0&quot;&gt; explanation&lt;/span&gt;&lt;/span&gt;&lt;span style=&quot;box-sizing: border-box; color: rgb(53, 55, 64); font-family: ColfaxAI, helvetica, sans-serif; font-size: 12px; text-align: left; background-color: rgb(255, 255, 255);&quot; data-offset-key=&quot;edk77-476-0&quot;&gt;&lt;span style=&quot;box-sizing: border-box; font-size: 12px;&quot; data-offset-key=&quot;edk77-476-0&quot;&gt; that&lt;/span&gt;&lt;/span&gt;&lt;span style=&quot;box-sizing: border-box; color: rgb(53, 55, 64); font-family: ColfaxAI, helvetica, sans-serif; font-size: 12px; text-align: left; background-color: rgb(255, 255, 255);&quot; data-offset-key=&quot;edk77-477-0&quot;&gt;&lt;span style=&quot;box-sizing: border-box; font-size: 12px;&quot; data-offset-key=&quot;edk77-477-0&quot;&gt; is&lt;/span&gt;&lt;/span&gt;&lt;span style=&quot;box-sizing: border-box; color: rgb(53, 55, 64); font-family: ColfaxAI, helvetica, sans-serif; font-size: 12px; text-align: left; background-color: rgb(255, 255, 255);&quot; data-offset-key=&quot;edk77-478-0&quot;&gt;&lt;span style=&quot;box-sizing: border-box; font-size: 12px;&quot; data-offset-key=&quot;edk77-478-0&quot;&gt; less&lt;/span&gt;&lt;/span&gt;&lt;span style=&quot;box-sizing: border-box; color: rgb(53, 55, 64); font-family: ColfaxAI, helvetica, sans-serif; font-size: 12px; text-align: left; background-color: rgb(255, 255, 255);&quot; data-offset-key=&quot;edk77-479-0&quot;&gt;&lt;span style=&quot;box-sizing: border-box; font-size: 12px;&quot; data-offset-key=&quot;edk77-479-0&quot;&gt; than&lt;/span&gt;&lt;/span&gt;&lt;span style=&quot;box-sizing: border-box; color: rgb(53, 55, 64); font-family: ColfaxAI, helvetica, sans-serif; font-size: 12px; text-align: left; background-color: rgb(255, 255, 255);&quot; data-offset-key=&quot;edk77-480-0&quot;&gt;&lt;span style=&quot;box-sizing: border-box; font-size: 12px;&quot; data-offset-key=&quot;edk77-480-0&quot;&gt; 4&lt;/span&gt;&lt;/span&gt;&lt;span style=&quot;box-sizing: border-box; color: rgb(53, 55, 64); font-family: ColfaxAI, helvetica, sans-serif; font-size: 12px; text-align: left; background-color: rgb(255, 255, 255);&quot; data-offset-key=&quot;edk77-481-0&quot;&gt;&lt;span style=&quot;box-sizing: border-box; font-size: 12px;&quot; data-offset-key=&quot;edk77-481-0&quot;&gt; sentences&lt;/span&gt;&lt;/span&gt;&lt;span style=&quot;box-sizing: border-box; color: rgb(53, 55, 64); font-family: ColfaxAI, helvetica, sans-serif; font-size: 12px; text-align: left; background-color: rgb(255, 255, 255);&quot; data-offset-key=&quot;edk77-482-0&quot;&gt;&lt;span style=&quot;box-sizing: border-box; font-size: 12px;&quot; data-offset-key=&quot;edk77-482-0&quot;&gt;.&lt;/span&gt;&lt;/span&gt;" style="rounded=0;whiteSpace=wrap;html=1;fontSize=12;" vertex="1" parent="1">
          <mxGeometry x="-255" y="690" width="400" height="120" as="geometry" />
        </mxCell>
        <mxCell id="u-VpH2WF8Jtv2nqAHQWA-25" value="" style="shape=cross;whiteSpace=wrap;html=1;fontSize=12;" vertex="1" parent="1">
          <mxGeometry x="-72.5" y="830" width="35" height="30" as="geometry" />
        </mxCell>
        <mxCell id="u-VpH2WF8Jtv2nqAHQWA-26" value="&lt;span style=&quot;box-sizing: border-box; color: rgb(53, 55, 64); font-family: ColfaxAI, helvetica, sans-serif; font-size: 12px; text-align: left; background-color: rgb(255, 255, 255);&quot; data-offset-key=&quot;edk77-485-0&quot;&gt;&lt;span style=&quot;box-sizing: border-box; font-size: 12px;&quot; data-offset-key=&quot;edk77-485-0&quot;&gt;Here&lt;/span&gt;&lt;/span&gt;&lt;span style=&quot;box-sizing: border-box; color: rgb(53, 55, 64); font-family: ColfaxAI, helvetica, sans-serif; font-size: 12px; text-align: left; background-color: rgb(255, 255, 255);&quot; data-offset-key=&quot;edk77-486-0&quot;&gt;&lt;span style=&quot;box-sizing: border-box; font-size: 12px;&quot; data-offset-key=&quot;edk77-486-0&quot;&gt; is&lt;/span&gt;&lt;/span&gt;&lt;span style=&quot;box-sizing: border-box; color: rgb(53, 55, 64); font-family: ColfaxAI, helvetica, sans-serif; font-size: 12px; text-align: left; background-color: rgb(255, 255, 255);&quot; data-offset-key=&quot;edk77-487-0&quot;&gt;&lt;span style=&quot;box-sizing: border-box; font-size: 12px;&quot; data-offset-key=&quot;edk77-487-0&quot;&gt; the&lt;/span&gt;&lt;/span&gt;&lt;span style=&quot;box-sizing: border-box; color: rgb(53, 55, 64); font-family: ColfaxAI, helvetica, sans-serif; font-size: 12px; text-align: left; background-color: rgb(255, 255, 255);&quot; data-offset-key=&quot;edk77-488-0&quot;&gt;&lt;span style=&quot;box-sizing: border-box; font-size: 12px;&quot; data-offset-key=&quot;edk77-488-0&quot;&gt; explanation&lt;/span&gt;&lt;/span&gt;&lt;span style=&quot;box-sizing: border-box; color: rgb(53, 55, 64); font-family: ColfaxAI, helvetica, sans-serif; font-size: 12px; text-align: left; background-color: rgb(255, 255, 255);&quot; data-offset-key=&quot;edk77-489-0&quot;&gt;&lt;span style=&quot;box-sizing: border-box; font-size: 12px;&quot; data-offset-key=&quot;edk77-489-0&quot;&gt;:&lt;/span&gt;&lt;/span&gt;" style="rounded=0;whiteSpace=wrap;html=1;fontSize=12;" vertex="1" parent="1">
          <mxGeometry x="-122.5" y="890" width="135" height="30" as="geometry" />
        </mxCell>
      </root>
    </mxGraphModel>
  </diagram>
</mxfile>
